{"title":"War.Story.2014. 720p. HDRip.XviD By -=BGood577=-","uid":10723206,"size":789777927,"categoryP":"video","categoryS":"hd___movies","magnet":"?xt=urn:btih:fed40828fb4808cf87fecca10b4c805ec3988b22&amp;dn=War.Story.2014.+720p.+HDRip.XviD+By+-%3DBGood577%3D-&amp;tr=udp%3A%2F%2Ftracker.openbittorrent.com%3A80&amp;tr=udp%3A%2F%2Fopen.demonii.com%3A1337&amp;tr=udp%3A%2F%2Ftracker.coppersurfer.tk%3A6969&amp;tr=udp%3A%2F%2Fexodus.desync.com%3A6969","seeders":0,"leechers":1,"uploader":"inovai","files":2,"time":1407512453,"description":" General Info:\nComplete name : War.Story.2014. 720p. HDRip.XviD By -=BGood577=-\nFormat : MPEG-4\nFormat profile : QuickTime\nCodec ID : qt\nFile size : 749 MiB\nDuration : 1h 29mn\nOverall bit rate : 1 173 Kbps\nWriting application : Lavf52.0.0\nComment : QuickTime 6.0 or greater\nVideo:\nID : 1\nFormat : MPEG-4 Visual\nFormat profile : Simple@L1\nFormat settings, BVOP : No\nFormat settings, QPel : No\nFormat settings, GMC : No warppoints\nFormat settings, Matrix : Default (H.263)\nCodec ID : 20\nDuration : 1h 29mn\nBit rate mode : Variable\nBit rate : 1 104 Kbps\nWidth : 640 pixels\nHeight : 272 pixels\nDisplay aspect ratio : 2.35:1\nFrame rate mode : Constant\nFrame rate : 23.976 fps\nColor space : YUV\nChroma subsampling : 4:2:0\nBit depth : 8 bits\nScan type : Progressive\nCompression mode : Lossy\nBits/(Pixel*Frame) : 0.264\nStream size : 705 MiB (94%)\nWriting library : Lavc52.48.0\nLanguage : English\nAudio:\nID : 2\nFormat : AAC\nFormat/Info : Advanced Audio Codec\nFormat version : Version 4\nFormat profile : LC\nCodec ID : 40\nDuration : 1h 29mn\nBit rate mode : Variable\nBit rate : 64.2 Kbps\nChannel(s) : 2 channels\nChannel positions : Front: L R\nSampling rate : 48.0 KHz\nCompression mode : Lossy\nStream size : 41.0 MiB (5%)\nLanguage : English\n\nThanks to BGood577!!\n\nSeed n Enjoy!!","torrent":{"xt":"urn:btih:fed40828fb4808cf87fecca10b4c805ec3988b22","amp;dn":"War.Story.2014.+720p.+HDRip.XviD+By+-%3DBGood577%3D-","amp;tr":["udp%3A%2F%2Ftracker.openbittorrent.com%3A80","udp%3A%2F%2Fopen.demonii.com%3A1337","udp%3A%2F%2Ftracker.coppersurfer.tk%3A6969","udp%3A%2F%2Fexodus.desync.com%3A6969"],"infoHash":"fed40828fb4808cf87fecca10b4c805ec3988b22","infoHashBuffer":{"type":"Buffer","data":[254,212,8,40,251,72,8,207,135,254,204,161,11,76,128,94,195,152,139,34]},"announce":[],"urlList":[]}}